<svg width="381" height="475" viewBox="0 0 381 475" fill="none" xmlns="http://www.w3.org/2000/svg">
<path d="M264.607 275.099C264.607 316.497 231.469 350.046 190.604 350.046C149.739 350.046 116.601 316.497 116.601 275.099C116.601 233.702 149.739 200.153 190.604 200.153C231.469 200.153 264.607 233.702 264.607 275.099Z" stroke="#9C81D5"/>
<path d="M312.436 275.565C312.436 343.455 258.09 398.481 191.064 398.481C124.038 398.481 69.6921 343.455 69.6921 275.565C69.6921 207.675 124.038 152.65 191.064 152.65C258.09 152.65 312.436 207.675 312.436 275.565Z" stroke="#9C81D5"/>
<path d="M348.308 275.099C348.308 363.309 277.695 434.807 190.604 434.807C103.513 434.807 32.9006 363.309 32.9006 275.099C32.9006 186.89 103.513 115.392 190.604 115.392C277.695 115.392 348.308 186.89 348.308 275.099Z" stroke="#9C81D5"/>
<path d="M380.5 275.099C380.5 381.314 295.475 467.407 190.604 467.407C85.7333 467.407 0.708008 381.314 0.708008 275.099C0.708008 168.885 85.7333 82.792 190.604 82.792C295.475 82.792 380.5 168.885 380.5 275.099Z" stroke="#9C81D5"/>
</svg>
