<svg width="127" height="126" viewBox="0 0 127 126" fill="none" xmlns="http://www.w3.org/2000/svg">
<g filter="url(#filter0_d_157_7186)">
<rect x="39.2002" y="20.02" width="48.96" height="48.96" rx="12.24" fill="#7F56D9"/>
<g clip-path="url(#clip0_157_7186)">
<path d="M76.1118 49.9186H75.028V48.9623H76.1118C76.8768 48.9623 77.5143 48.3248 77.5143 47.5598V40.8661C77.5143 39.6548 76.4943 38.6348 75.283 38.6348H68.2705C67.0593 38.6348 66.0393 39.6548 66.0393 40.8661V47.5598C66.0393 48.3248 66.6768 48.9623 67.4418 48.9623H68.5255V49.9186H67.4418C66.103 49.9186 65.083 48.8348 65.083 47.5598V40.8661C65.083 39.0811 66.4855 37.6786 68.2705 37.6786H75.3468C77.1318 37.6786 78.5343 39.0811 78.5343 40.8661V47.5598C78.5343 48.8986 77.4505 49.9186 76.1118 49.9186ZM71.7768 36.6586C69.8643 36.6586 68.2705 35.0648 68.2705 33.1523C68.2705 31.2398 69.8643 29.6461 71.7768 29.6461C73.6893 29.6461 75.283 31.2398 75.283 33.1523C75.283 35.0648 73.753 36.6586 71.7768 36.6586ZM71.7768 30.6661C70.3743 30.6661 69.2268 31.8136 69.2268 33.2161C69.2268 34.6186 70.3743 35.7661 71.7768 35.7661C73.1793 35.7661 74.3268 34.6186 74.3268 33.2161C74.3268 31.8136 73.1793 30.6661 71.7768 30.6661Z" fill="#F5F5F4"/>
<path d="M73.4343 59.3535C72.7968 59.3535 72.2231 59.0348 71.8406 58.5885C71.4581 59.0348 70.8843 59.3535 70.2468 59.3535C69.0993 59.3535 68.1431 58.3973 68.1431 57.2498V41.6948H69.0993V57.2498C69.0993 57.8873 69.6093 58.3973 70.2468 58.3973C70.8843 58.3973 71.3306 57.8235 71.3306 57.2498V49.4723H72.2868V57.2498C72.2868 57.8873 72.7968 58.3973 73.4343 58.3973C74.0718 58.3973 74.5818 57.8873 74.5818 57.2498V41.6948H75.5381V57.2498C75.5381 58.3973 74.5818 59.3535 73.4343 59.3535Z" fill="#F5F5F4"/>
<path d="M66.5489 52.7236H48.8901V32.7061H66.8676V33.6623H49.8464V51.7673H66.5489V52.7236Z" fill="#F5F5F4"/>
<path d="M63.4254 41.6311H52.4604V42.5874H63.4254V41.6311Z" fill="#F5F5F4"/>
<path d="M63.4254 44.8824H52.4604V45.8386H63.4254V44.8824Z" fill="#F5F5F4"/>
<path d="M63.4254 48.1973H52.4604V49.1535H63.4254V48.1973Z" fill="#F5F5F4"/>
</g>
</g>
<defs>
<filter id="filter0_d_157_7186" x="0.950195" y="0.12999" width="125.46" height="125.46" filterUnits="userSpaceOnUse" color-interpolation-filters="sRGB">
<feFlood flood-opacity="0" result="BackgroundImageFix"/>
<feColorMatrix in="SourceAlpha" type="matrix" values="0 0 0 0 0 0 0 0 0 0 0 0 0 0 0 0 0 0 127 0" result="hardAlpha"/>
<feOffset dy="18.36"/>
<feGaussianBlur stdDeviation="19.125"/>
<feComposite in2="hardAlpha" operator="out"/>
<feColorMatrix type="matrix" values="0 0 0 0 0.0509804 0 0 0 0 0.0470588 0 0 0 0 0.219608 0 0 0 0.15 0"/>
<feBlend mode="normal" in2="BackgroundImageFix" result="effect1_dropShadow_157_7186"/>
<feBlend mode="normal" in="SourceGraphic" in2="effect1_dropShadow_157_7186" result="shape"/>
</filter>
<clipPath id="clip0_157_7186">
<rect width="30.6" height="30.6" fill="white" transform="translate(48.3804 29.1999)"/>
</clipPath>
</defs>
</svg>
